<svg xmlns="http://www.w3.org/2000/svg" width="283.818" height="62.16" viewBox="0 0 283.818 62.16"><path d="M562.789,211.624l-.042-.025-.1-.03a.234.234,0,0,0,.141.055Z" transform="translate(-524.341 -197.165)" fill="#fff"/><path d="M573.2,277.606l-.047.013Z" transform="translate(-534.13 -258.706)" fill="#fff"/><path d="M564.745,212.221l-.018,0a.048.048,0,0,0,0,.012.036.036,0,0,0,.018-.008Z" transform="translate(-526.279 -197.769)" fill="#fff"/><path d="M564.727,212.334h.006v0Z" transform="translate(-526.279 -197.874)" fill="#fff"/><path d="M573.292,276.366l.072-.041.027-.015.024-.026a.4.4,0,0,0-.123.082Z" transform="translate(-534.261 -257.474)" fill="#fff"/><path d="M564.938,212.535l-.07-.067-.048-.026a.2.2,0,0,0,.118.093Z" transform="translate(-526.365 -197.978)" fill="#fff"/><path d="M305.007,846.743a.364.364,0,0,0-.143.11l.044-.029C304.938,846.8,304.981,846.765,305.007,846.743Z" transform="translate(-284.108 -789.094)" fill="#fff"/><path d="M457.368,816.628c0-.063-.031-.052-.023.174a.306.306,0,0,1,.011-.055C457.36,816.707,457.363,816.668,457.368,816.628Z" transform="translate(-426.206 -760.998)" fill="#fff"/><path d="M440.112,846.743a.364.364,0,0,0-.143.11l.044-.029C440.043,846.8,440.086,846.765,440.112,846.743Z" transform="translate(-410.015 -789.094)" fill="#fff"/><path d="M198.745,852.832a.3.3,0,0,0-.151-.07c.045.022.09.043.12.06Z" transform="translate(-185.074 -794.703)" fill="#fff"/><path d="M176.105,828.354a.478.478,0,0,0-.059-.187,1.517,1.517,0,0,1,.058.184Z" transform="translate(-164.06 -771.783)" fill="#fff"/><path d="M171.552,400.025a19.532,19.532,0,0,1-8.05,2.04,15.243,15.243,0,0,1-4.064-.56l2.271,23.318a3.9,3.9,0,0,0,3.883,3.576s3.22.167,4.295.167c1.157,0,4.624-.167,4.624-.167a3.9,3.9,0,0,0,3.883-3.576l2.433-25.768a10.344,10.344,0,0,0-3.421-.618A14.388,14.388,0,0,0,171.552,400.025Z" transform="translate(-148.583 -371.31)" fill="#fd0"/><path d="M56.171,275.636l.038.036.025.015a.379.379,0,0,0-.064-.051Z" transform="translate(-52.347 -256.87)" fill="#fff"/><path d="M42.747,16.614l-.342-1.725a4.313,4.313,0,0,0-2.592-3.57,3.9,3.9,0,0,1-1.478-.626,2.561,2.561,0,0,1-.6-1.479c-.167-.979-.324-1.959-.5-2.937a9.421,9.421,0,0,0-.651-2.556A4.5,4.5,0,0,0,34.014,1.68a14.852,14.852,0,0,0-1.621-.5A39.668,39.668,0,0,0,24.426.1,66.887,66.887,0,0,0,14.844.26a28.484,28.484,0,0,0-7.123,1.3,6.031,6.031,0,0,0-2.3,1.3,2.487,2.487,0,0,0-.458,2.966A3.84,3.84,0,0,0,6.755,7.326a14.528,14.528,0,0,0,2.908.947,47.5,47.5,0,0,0,8.514.96,64.83,64.83,0,0,0,9.449-.309Q28.79,8.8,29.95,8.617a1.762,1.762,0,0,0,1.227-2.16,1.81,1.81,0,0,0-2.16-1.227c-.144.023-.287.043-.431.064l-.1.015q-.5.063-.992.117-1.024.11-2.054.181c-1.537.107-3.078.156-4.619.159-1.514,0-3.028-.043-4.538-.142q-1.034-.068-2.062-.172c-.312-.033-.623-.067-.934-.105l-.3-.038L12.924,5.3l-.307-.044c-.627-.094-1.254-.2-1.875-.334a.282.282,0,0,1,0-.55h.012c.538-.115,1.08-.212,1.623-.3l.545-.084h.005c.34-.023.682-.084,1.021-.124a64.936,64.936,0,0,1,8.872-.313c1.438.042,2.874.126,4.3.272.308.032.614.065.92.1l.353.045.238.034q1.039.155,2.066.375c1.015.221,2.319.293,2.77,1.4A6.643,6.643,0,0,1,33.76,6.9l.1.472a.16.16,0,0,1,.006.026q.359,1.672.718,3.345a.613.613,0,0,1-.515.735h-.007l-.146.02-.145.019q-.687.089-1.376.167-1.357.155-2.719.268-2.705.225-5.421.3-1.384.037-2.767.034a96.041,96.041,0,0,1-10.983-.639c-.395-.047-.789-.1-1.184-.148.306.039-.222-.03-.329-.045q-.376-.053-.753-.11c-.842-.126-1.679-.282-2.52-.418a4.379,4.379,0,0,0-2.907.418,4.228,4.228,0,0,0-1.75,1.815A10.593,10.593,0,0,0,.372,15.75a9,9,0,0,0-.349,2.732,4.363,4.363,0,0,0,3.551,3.891c1.846.334,3.7.605,5.562.836a102.779,102.779,0,0,0,22.025.319q.9-.084,1.789-.182a1.254,1.254,0,0,1,1.385,1.375l-.186,1.8L33.026,37.465q-.585,5.743-1.178,11.486l-.334,3.234c-.107,1.061-.122,2.156-.324,3.2a3.725,3.725,0,0,1-3.063,3.032,21.374,21.374,0,0,1-4.547.532c-1.7.009-3.393-.066-5.089-.057-1.811.01-4.03-.157-5.428-1.505-1.228-1.184-1.4-3.038-1.565-4.641q-.334-3.184-.663-6.366L9.6,34.585l-.8-7.634c-.013-.126-.027-.251-.039-.378a1.8,1.8,0,0,0-1.756-1.756,1.774,1.774,0,0,0-1.756,1.756l.59,5.66L7.066,43.94q.521,4.988,1.039,9.978c.067.637.13,1.276.2,1.913.382,3.482,3.041,5.359,6.334,5.887a41.079,41.079,0,0,0,5.845.4,37.966,37.966,0,0,0,7.49-.317c3.647-.669,6.383-3.1,6.773-6.881l.334-3.272q.556-5.412,1.11-10.825L37.4,29.036l.554-5.4a1.254,1.254,0,0,1,1.01-1.1,4.925,4.925,0,0,0,2.781-1.344A4.743,4.743,0,0,0,42.747,16.614ZM3.52,17.78c.016-.008-.013.129-.026.192C3.492,17.876,3.5,17.791,3.52,17.78Zm.1.783c.008-.006.033.028.059.068-.039-.037-.064-.064-.06-.068Zm.1.131c.036.061.055.1,0,0Zm.2.162h.005c0,.006.009.012.013.018a.129.129,0,0,0-.018-.018Zm35-.243a2.755,2.755,0,0,1-1.5.6A105.564,105.564,0,0,1,18.5,20.409a127.426,127.426,0,0,1-13.484-1.29A1.982,1.982,0,0,1,3.8,18.653c-.569-.61-.289-1.84-.141-2.577.135-.676.395-1.576,1.2-1.672a15.982,15.982,0,0,1,3.952.57q2.241.342,4.5.548a86.868,86.868,0,0,0,19.351-.362q1.749-.235,3.485-.546c1.031-.185,2.174-.532,2.8.536a4.436,4.436,0,0,1,.418,2.523,1.406,1.406,0,0,1-.437.942Z" transform="translate(0 0)" fill="#fff"/><path d="M931.426,260.585a5.752,5.752,0,0,1-1.506,1.819,8.114,8.114,0,0,1-2.237,1.258,11.257,11.257,0,0,1-2.571.652,8.665,8.665,0,0,1-2.511-.03,4.838,4.838,0,0,1-2.069-.8l.639-6.641q.882-.3,2.222-.622a20.335,20.335,0,0,1,2.754-.455,11.81,11.81,0,0,1,2.679.03,3.7,3.7,0,0,1,1.993.8,4.08,4.08,0,0,1,.67.788,2.145,2.145,0,0,1,.335.88A3.9,3.9,0,0,1,931.426,260.585Zm-9.283-14.147a7.532,7.532,0,0,1,1.537-.7,9.572,9.572,0,0,1,1.842-.424,8.064,8.064,0,0,1,1.841-.03,3.794,3.794,0,0,1,1.582.5,2.486,2.486,0,0,1,1.019,1.183,3.729,3.729,0,0,1,.183,1.956,2.755,2.755,0,0,1-.746,1.592,5.322,5.322,0,0,1-1.522,1.092,9.864,9.864,0,0,1-1.9.7,16.111,16.111,0,0,1-1.933.379q-.928.122-1.613.152c-.457.02-.757.03-.9.03Zm12.57,9.855a6.207,6.207,0,0,0-1.309-1.865,4.9,4.9,0,0,0-1.948-1.167,4.224,4.224,0,0,0,.959-1.243,10.93,10.93,0,0,0,.807-1.85,10.154,10.154,0,0,0,.456-2.017,4.4,4.4,0,0,0-.09-1.744,5.764,5.764,0,0,0-4.216-4.276,8.437,8.437,0,0,0-3.257-.167,17.185,17.185,0,0,0-3.637.895,1.739,1.739,0,0,1,.03-.318,2.015,2.015,0,0,0,.03-.349.964.964,0,0,0-.457-.788,2.111,2.111,0,0,0-1.049-.394,1.913,1.913,0,0,0-1.157.258,1.739,1.739,0,0,0-.776,1.167q-.244,2.729-.487,5.671t-.517,5.944q-.274,3-.548,5.958T917,265.694a2.428,2.428,0,0,0,.457,1.274,1.416,1.416,0,0,0,.852.546,1.625,1.625,0,0,0,1.02-.167,2.3,2.3,0,0,0,.928-.895,7.7,7.7,0,0,0,2.739.865,12.17,12.17,0,0,0,3.089,0,14.459,14.459,0,0,0,3.089-.743,13.068,13.068,0,0,0,2.77-1.364,9.169,9.169,0,0,0,2.1-1.865,5.465,5.465,0,0,0,1.126-2.259,7.911,7.911,0,0,0,.152-2.487A7.164,7.164,0,0,0,934.713,256.294Z" transform="translate(-854.568 -224.592)" fill="#fff" fill-rule="evenodd"/><path d="M1221.874,385.041a21.374,21.374,0,0,1-.472,2.108,13.835,13.835,0,0,1-.716,2.017,5.751,5.751,0,0,1-.912,1.47,1.181,1.181,0,0,1-1.081.471.666.666,0,0,1-.578-.576,3.358,3.358,0,0,1,0-1.274,9.394,9.394,0,0,1,.471-1.713,15.077,15.077,0,0,1,.852-1.9,14.737,14.737,0,0,1,1.142-1.8,8.071,8.071,0,0,1,1.339-1.44,1.612,1.612,0,0,1,.138.91A12.519,12.519,0,0,1,1221.874,385.041Zm10.318-13.161a1.526,1.526,0,0,0-1-.515,1.446,1.446,0,0,0-1.2.667,7.133,7.133,0,0,1-1,1.4,13.011,13.011,0,0,1-1.264,1.213,14.279,14.279,0,0,1-1.248.94q-.593.395-.929.576a19.142,19.142,0,0,1-.137-2.093q-.016-1.122.046-2.274a28.476,28.476,0,0,1,.38-3.306,21.689,21.689,0,0,1,.837-3.276,2.252,2.252,0,0,0-.4-1.379,1.618,1.618,0,0,0-2.116-.516,2.432,2.432,0,0,0-1.019,1.046q-.365,1-.836,2.244t-1.066,2.532a25.477,25.477,0,0,1-1.323,2.5,13.176,13.176,0,0,1-1.6,2.153,6.926,6.926,0,0,1-1.886,1.471,4.227,4.227,0,0,1-2.207.47,1.19,1.19,0,0,1-.791-.819,5.667,5.667,0,0,1-.289-1.668,13.847,13.847,0,0,1,.091-2.2q.137-1.2.365-2.38t.5-2.244q.273-1.061.517-1.789a1.558,1.558,0,0,0,0-1.471,1.762,1.762,0,0,0-1-.789,2.251,2.251,0,0,0-1.339.015,1.541,1.541,0,0,0-1,.94,23.56,23.56,0,0,0-.944,2.79,28.836,28.836,0,0,0-.685,3.2,23.93,23.93,0,0,0-.289,3.276c0,.07,0,.137,0,.207a13.445,13.445,0,0,1-1.265,2.658,1.784,1.784,0,0,1-1.75,1,1.066,1.066,0,0,1-.562-.849,6.666,6.666,0,0,1-.092-1.638q.047-.97.228-2.2t.457-2.547q.274-1.32.578-2.654t.548-2.517a2.221,2.221,0,0,0-.624-1.622,1.977,1.977,0,0,0-1.658-.44,2.454,2.454,0,0,0-1.081.789,3.927,3.927,0,0,0-.562,1.243q-.122.395-.366,1.578t-.623,2.714q-.381,1.532-.9,3.2a23.07,23.07,0,0,1-1.156,3.017,8.571,8.571,0,0,1-1.4,2.168,1.776,1.776,0,0,1-1.643.667c-.325-.061-.532-.395-.624-1a10.552,10.552,0,0,1-.046-2.244,28.943,28.943,0,0,1,.366-2.926q.272-1.592.563-3.018t.532-2.517q.244-1.092.334-1.455a2.308,2.308,0,0,0-.4-1.41,1.617,1.617,0,0,0-2.115-.516,2.433,2.433,0,0,0-1.02,1.046q-.152.819-.4,1.9t-.471,2.214q-.229,1.137-.426,2.229t-.289,1.91q-.061.636-.137,1.562t-.076,1.956a13.716,13.716,0,0,0,.152,2.047,6.762,6.762,0,0,0,.547,1.865,3.68,3.68,0,0,0,1.111,1.4,3.208,3.208,0,0,0,1.811.607,6.242,6.242,0,0,0,1.963-.167,4.762,4.762,0,0,0,1.521-.713,6.68,6.68,0,0,0,1.249-1.152q.562-.666,1.11-1.456a4.576,4.576,0,0,0,1.339,1.789,3.581,3.581,0,0,0,1.735.758,3.633,3.633,0,0,0,1.856-.258,4.336,4.336,0,0,0,1.7-1.289,9.427,9.427,0,0,0,.945-1.262,5.3,5.3,0,0,0,.409.625,3.773,3.773,0,0,0,2.024,1.335,6.022,6.022,0,0,0,2.678.122,8.539,8.539,0,0,0,2.5-.88,11.752,11.752,0,0,0,2.207-1.532,13.9,13.9,0,0,0,1.78-1.865c-.021.465-.03.905-.03,1.319s-.011.864-.031,1.35a17.3,17.3,0,0,0-2.876,2.547,20.274,20.274,0,0,0-2.374,3.169,16.93,16.93,0,0,0-1.6,3.411,9.875,9.875,0,0,0-.564,3.23,4.954,4.954,0,0,0,.714,2.623,3.906,3.906,0,0,0,2.283,1.607,4.3,4.3,0,0,0,2.892.031,5.3,5.3,0,0,0,2.176-1.607,9.331,9.331,0,0,0,1.522-2.714,21.834,21.834,0,0,0,.943-3.321,23.6,23.6,0,0,0,.441-3.4,23.913,23.913,0,0,0,0-2.972,13.172,13.172,0,0,0,4.291-2.76,17.724,17.724,0,0,0,2.769-3.518,1.382,1.382,0,0,0,.229-1.091A2.12,2.12,0,0,0,1232.192,371.88Z" transform="translate(-1112.038 -337.328)" fill="#fff" fill-rule="evenodd"/><path d="M1885.378,359.2a14.747,14.747,0,0,1,.274-1.471,12.014,12.014,0,0,1,.457-1.5,5.782,5.782,0,0,1,.639-1.258,2.393,2.393,0,0,1,.776-.758.769.769,0,0,1,.838.045,1.463,1.463,0,0,1,.563,1.152,4.43,4.43,0,0,1-.213,1.881,4.983,4.983,0,0,1-1.141,1.88,3.983,3.983,0,0,1-2.221,1.152A4.259,4.259,0,0,1,1885.378,359.2Zm10.546,1.243a1.734,1.734,0,0,0-.959-.03.783.783,0,0,0-.578.637,9.055,9.055,0,0,1-.777,1.986,10.421,10.421,0,0,1-1.307,1.926,9.791,9.791,0,0,1-1.751,1.607,6.582,6.582,0,0,1-2.039,1,2.749,2.749,0,0,1-1.765.076,2.216,2.216,0,0,1-1.111-.879,4.3,4.3,0,0,1-.593-1.5,10.651,10.651,0,0,1-.213-1.82,5.489,5.489,0,0,0,3.09-.622,7.28,7.28,0,0,0,2.3-1.971,8.935,8.935,0,0,0,1.431-2.76,11.587,11.587,0,0,0,.548-3.048,5.439,5.439,0,0,0-.426-2.411,3.75,3.75,0,0,0-1.233-1.532,3.6,3.6,0,0,0-1.781-.637,4.791,4.791,0,0,0-2.039.273,4.964,4.964,0,0,0-2.114,1.38,8.616,8.616,0,0,0-1.446,2.214,14.023,14.023,0,0,0-.913,2.714,24.414,24.414,0,0,0-.487,2.866c-.091.844-.141,1.651-.157,2.429l-.132.3a18.242,18.242,0,0,1-1.1,2.108,7.787,7.787,0,0,1-1.385,1.729,1.648,1.648,0,0,1-1.582.485c-.325-.08-.5-.455-.533-1.122a17.36,17.36,0,0,1,.106-2.487q.154-1.485.351-3.215a29.3,29.3,0,0,0,.2-3.305,6.829,6.829,0,0,0-.517-2.623,5.852,5.852,0,0,0-1.415-2.092,4.487,4.487,0,0,0-2.084-1.107,3.9,3.9,0,0,0-2.556.364,5.333,5.333,0,0,0-2.176,1.789,22.278,22.278,0,0,0-1.477,2.426,7.225,7.225,0,0,0-.715-1.8,5.846,5.846,0,0,0-1.157-1.456,5.235,5.235,0,0,0-1.536-.97,4.713,4.713,0,0,0-1.8-.349,4.083,4.083,0,0,0-1.689.349,5.886,5.886,0,0,0-1.416.894,7.872,7.872,0,0,0-1.157,1.229,14.376,14.376,0,0,0-.912,1.349q-.062-.788-.138-1.38a3.258,3.258,0,0,0-.273-1,1.4,1.4,0,0,0-.563-.622,2.081,2.081,0,0,0-1.034-.212,1.761,1.761,0,0,0-.67.136,1.914,1.914,0,0,0-.594.379,1.552,1.552,0,0,0-.471,1.395,4.33,4.33,0,0,0,.167.8,10.685,10.685,0,0,1,.259,1.228q.122.758.2,1.835t.045,2.639q-.031,1.562-.229,3.654t-.623,4.852a1.075,1.075,0,0,0,.487,1.031,2.55,2.55,0,0,0,2.571.212,1.264,1.264,0,0,0,.716-1.061q.091-1.425.35-3.033t.639-3.184q.38-1.576.867-3a16.294,16.294,0,0,1,1.081-2.517,7.838,7.838,0,0,1,1.232-1.743,1.877,1.877,0,0,1,1.34-.652,1.474,1.474,0,0,1,1.324.773,5.537,5.537,0,0,1,.67,1.986,15.6,15.6,0,0,1,.183,2.654q-.016,1.44-.122,2.775t-.244,2.381q-.137,1.046-.2,1.44a1.322,1.322,0,0,0,.531,1.107,2.363,2.363,0,0,0,1.187.485,2.015,2.015,0,0,0,1.233-.243,1.323,1.323,0,0,0,.67-1.077q.3-2.183.837-4.382a30.142,30.142,0,0,1,1.218-3.942,11.992,11.992,0,0,1,1.521-2.851,2.3,2.3,0,0,1,1.781-1.107q.486,0,.746.667a5.178,5.178,0,0,1,.259,1.819,11.484,11.484,0,0,1-.138,1.744q-.136.895-.319,1.85t-.319,1.956a15.4,15.4,0,0,0-.136,2.093,11.834,11.834,0,0,0,.151,1.759,6.747,6.747,0,0,0,.578,1.9,4.423,4.423,0,0,0,1.173,1.516,2.869,2.869,0,0,0,1.9.622,6.234,6.234,0,0,0,3.074-.743,7.709,7.709,0,0,0,2.3-1.94c.032-.042.063-.087.095-.128.049.118.093.243.147.355a5.028,5.028,0,0,0,1.782,2.062,5.266,5.266,0,0,0,2.648.8,8.683,8.683,0,0,0,3.317-.561,9.2,9.2,0,0,0,2.328-1.213,8.681,8.681,0,0,0,1.78-1.774,14.091,14.091,0,0,0,1.446-2.411q.654-1.366,1.324-3.124a.889.889,0,0,0-.228-.864A1.884,1.884,0,0,0,1895.924,360.441Z" transform="translate(-1726.833 -326.586)" fill="#fff" fill-rule="evenodd"/><path d="M2592.4,367.465q-.153.9-.412,1.971t-.653,2.229a10.123,10.123,0,0,1-.974,2.077,5.215,5.215,0,0,1-1.325,1.471,2.426,2.426,0,0,1-1.719.455.955.955,0,0,1-.745-.667,4.134,4.134,0,0,1-.276-1.547,11.787,11.787,0,0,1,.168-2.062,12.739,12.739,0,0,1,.564-2.2,10.825,10.825,0,0,1,.927-1.986,4.553,4.553,0,0,1,1.264-1.41,2.517,2.517,0,0,1,1.566-.47,3.106,3.106,0,0,1,1.827.849C2592.568,366.439,2592.5,366.869,2592.4,367.465Zm10.819,2.32a1.313,1.313,0,0,0-.974-.106q-.5.136-.716.925a9.938,9.938,0,0,1-.548,2,12.748,12.748,0,0,1-1.05,2.183,6.891,6.891,0,0,1-1.431,1.714,2.356,2.356,0,0,1-1.718.621,1.188,1.188,0,0,1-1.067-.773,4.736,4.736,0,0,1-.319-1.789,13.492,13.492,0,0,1,.213-2.426q.229-1.349.548-2.684t.654-2.562q.335-1.228.548-2.077a1.354,1.354,0,0,0-.152-1.289,2.205,2.205,0,0,0-.989-.758,2.236,2.236,0,0,0-1.2-.121.938.938,0,0,0-.79.652,6.108,6.108,0,0,0-3.454-1.668,5.047,5.047,0,0,0-3.059.728,8.058,8.058,0,0,0-2.48,2.457,15.767,15.767,0,0,0-2.587,7.369,10.515,10.515,0,0,0,.258,3.594,5.511,5.511,0,0,0,1.506,2.653,4.08,4.08,0,0,0,2.938,1.031,3.9,3.9,0,0,0,1.581-.333,7.855,7.855,0,0,0,1.4-.789,8.222,8.222,0,0,0,1.127-.955q.486-.5.761-.834a5.255,5.255,0,0,0,.7,1.85,4.911,4.911,0,0,0,1.112,1.243,4.362,4.362,0,0,0,1.308.713,4.194,4.194,0,0,0,1.324.227,4.282,4.282,0,0,0,2.678-.971,10.966,10.966,0,0,0,2.238-2.38,15.217,15.217,0,0,0,1.627-2.972,13.765,13.765,0,0,0,.852-2.775.986.986,0,0,0-.075-.955A1.863,1.863,0,0,0,2603.216,369.784Z" transform="translate(-2406.764 -336.992)" fill="#fff" fill-rule="evenodd"/><path d="M3028.583,276.025a4.681,4.681,0,0,1-.806,1.744,1.751,1.751,0,0,1-1.369.743.8.8,0,0,1-.792-.546,4.815,4.815,0,0,1-.381-1.486,15.788,15.788,0,0,1-.09-2.032q.014-1.122.09-2.214t.184-2.032q.1-.941.167-1.455a2.633,2.633,0,0,1,1.721.895,5.362,5.362,0,0,1,1.049,1.835,8.262,8.262,0,0,1,.426,2.29A7.666,7.666,0,0,1,3028.583,276.025Zm-11.017,0a4.671,4.671,0,0,1-.808,1.744,1.747,1.747,0,0,1-1.369.743.8.8,0,0,1-.791-.546,4.775,4.775,0,0,1-.381-1.486,15.472,15.472,0,0,1-.091-2.032q.014-1.122.091-2.214t.183-2.032q.106-.941.168-1.455a2.626,2.626,0,0,1,1.719.895,5.373,5.373,0,0,1,1.051,1.835,8.262,8.262,0,0,1,.426,2.29A7.7,7.7,0,0,1,3017.566,276.025ZM3006.26,258.8a9.222,9.222,0,0,1-.137,1.288,1.285,1.285,0,0,1-.289.713,2.834,2.834,0,0,1-.822-.94,6.489,6.489,0,0,1-.761-1.714,4.789,4.789,0,0,1-.168-1.88,1.872,1.872,0,0,1,.96-1.44.41.41,0,0,1,.577.137,2.557,2.557,0,0,1,.4.925,8.6,8.6,0,0,1,.212,1.4A12.7,12.7,0,0,1,3006.26,258.8Zm-2.694,6.05a5.363,5.363,0,0,1-1.049.864,4.81,4.81,0,0,1-1.187.546,2.325,2.325,0,0,1-1.1.091,3.444,3.444,0,0,1-2.1-1.183,4.49,4.49,0,0,1-.929-2.138,7.907,7.907,0,0,1,.046-2.624,9.789,9.789,0,0,1,.823-2.592,7.981,7.981,0,0,1,1.4-2.062,3.509,3.509,0,0,1,1.8-1.077,10.472,10.472,0,0,0-.244,3.2,8.931,8.931,0,0,0,.792,3.108,8.153,8.153,0,0,0,1.019,1.607,5.548,5.548,0,0,0,1.446,1.243A3.965,3.965,0,0,1,3003.566,264.851Zm33.677-5.747a14.65,14.65,0,0,1,.274-1.471,12.315,12.315,0,0,1,.456-1.5,5.762,5.762,0,0,1,.64-1.258,2.367,2.367,0,0,1,.776-.758.766.766,0,0,1,.837.045,1.461,1.461,0,0,1,.563,1.152,4.411,4.411,0,0,1-.213,1.881,4.976,4.976,0,0,1-1.142,1.88,3.978,3.978,0,0,1-2.221,1.153A4.3,4.3,0,0,1,3037.243,259.1Zm12.265,0q.092-.7.274-1.471a12.449,12.449,0,0,1,.457-1.5,5.87,5.87,0,0,1,.638-1.258,2.392,2.392,0,0,1,.777-.758.767.767,0,0,1,.837.045,1.462,1.462,0,0,1,.564,1.152,4.41,4.41,0,0,1-.215,1.881,4.942,4.942,0,0,1-1.141,1.88,3.978,3.978,0,0,1-2.221,1.153A4.231,4.231,0,0,1,3049.508,259.1Zm11.4,1.774a1.884,1.884,0,0,0-.853-.531,1.73,1.73,0,0,0-.958-.03.785.785,0,0,0-.578.637,9.02,9.02,0,0,1-.776,1.986,10.427,10.427,0,0,1-1.309,1.926,9.771,9.771,0,0,1-1.75,1.607,6.587,6.587,0,0,1-2.039,1,2.751,2.751,0,0,1-1.766.076,2.218,2.218,0,0,1-1.111-.879,4.294,4.294,0,0,1-.593-1.5,10.853,10.853,0,0,1-.213-1.819,5.486,5.486,0,0,0,3.089-.622,7.29,7.29,0,0,0,2.3-1.971,8.937,8.937,0,0,0,1.43-2.759,11.663,11.663,0,0,0,.549-3.048,5.464,5.464,0,0,0-.427-2.411,3.739,3.739,0,0,0-1.233-1.531,3.6,3.6,0,0,0-1.78-.637,4.805,4.805,0,0,0-2.04.273,4.978,4.978,0,0,0-2.115,1.38,8.609,8.609,0,0,0-1.445,2.214,13.984,13.984,0,0,0-.914,2.714,24.347,24.347,0,0,0-.486,2.866q-.149,1.368-.165,2.621c-.077.167-.159.334-.248.5a10.348,10.348,0,0,1-1.307,1.926,9.776,9.776,0,0,1-1.75,1.607,6.557,6.557,0,0,1-2.039,1,2.745,2.745,0,0,1-1.764.076,2.209,2.209,0,0,1-1.111-.879,4.275,4.275,0,0,1-.594-1.5,10.485,10.485,0,0,1-.213-1.819,5.487,5.487,0,0,0,3.089-.622,7.305,7.305,0,0,0,2.3-1.971,8.947,8.947,0,0,0,1.43-2.759,11.563,11.563,0,0,0,.549-3.048,5.447,5.447,0,0,0-.426-2.411,3.747,3.747,0,0,0-1.234-1.531,3.6,3.6,0,0,0-1.78-.637,4.807,4.807,0,0,0-2.04.273,4.983,4.983,0,0,0-2.114,1.38,8.621,8.621,0,0,0-1.445,2.214,13.933,13.933,0,0,0-.913,2.714,24.149,24.149,0,0,0-.486,2.866c-.057.53-.1,1.044-.125,1.549-.2.166-.387.334-.591.5a18.212,18.212,0,0,1-2.208,1.532,13.7,13.7,0,0,1-2.4,1.122,9.675,9.675,0,0,1-2.556.531l1.887-20.136a1.216,1.216,0,0,0-.183-1.122,1.852,1.852,0,0,0-.944-.667,1.987,1.987,0,0,0-1.233.03,1.956,1.956,0,0,0-1.079.97q-.214,1.153-.441,3.154t-.458,4.367q-.226,2.365-.456,4.882t-.4,4.7c-.006.065-.009.123-.014.187-.178.15-.35.3-.534.45a18.367,18.367,0,0,1-2.206,1.532,13.658,13.658,0,0,1-2.405,1.122,9.679,9.679,0,0,1-2.556.531l1.887-20.136a1.209,1.209,0,0,0-.183-1.122,1.845,1.845,0,0,0-.943-.667,1.986,1.986,0,0,0-1.233.03,1.955,1.955,0,0,0-1.079.97q-.214,1.153-.44,3.154t-.458,4.367q-.231,2.365-.457,4.882t-.4,4.7c0,.029-.005.056-.006.085a7.324,7.324,0,0,1-1.044.385,5.537,5.537,0,0,1-1.308.2,11.876,11.876,0,0,0,.2-1.213q.074-.667.122-1.4t.029-1.455q-.016-.728-.076-1.335a11.409,11.409,0,0,0-.562-2.472,5.842,5.842,0,0,0-1.11-1.956,3.453,3.453,0,0,0-1.751-1.061,4.369,4.369,0,0,0-2.449.182,7.419,7.419,0,0,0-3.729.379,8.166,8.166,0,0,0-2.876,1.9,10.287,10.287,0,0,0-1.993,2.927,12.519,12.519,0,0,0-1.035,3.457,12.2,12.2,0,0,0-.12,1.5,8.93,8.93,0,0,1-1.036,1.671,9.109,9.109,0,0,1-1.674,1.637,7.64,7.64,0,0,1-1.719.971,8.318,8.318,0,0,1-1.521.455,4.291,4.291,0,0,1-1.522.03,2.529,2.529,0,0,1-1.339-.7,2.709,2.709,0,0,1-.744-1.365,9.29,9.29,0,0,1-.305-2.138,17.547,17.547,0,0,1,.092-2.5,14.264,14.264,0,0,1,.471-2.471,9.789,9.789,0,0,1,.852-2.093,3.3,3.3,0,0,1,1.217-1.319.553.553,0,0,1,.488.47,3.314,3.314,0,0,1,.045.971q-.046.562-.137,1.152a6.511,6.511,0,0,0-.092.986,2.415,2.415,0,0,0,.594,1.274,1.679,1.679,0,0,0,.99.531,1.578,1.578,0,0,0,1.079-.258,2.357,2.357,0,0,0,.867-1.062.125.125,0,0,0,.093.03l.425-3.851a1.672,1.672,0,0,0-.242-1.395,1.583,1.583,0,0,0-1.128-.7,2.955,2.955,0,0,0-2.387-1.35,5.078,5.078,0,0,0-3.091.986,6.459,6.459,0,0,0-1.719,1.925,12.4,12.4,0,0,0-1.216,2.729,17.234,17.234,0,0,0-.67,3.169,16.76,16.76,0,0,0-.077,3.244,13.189,13.189,0,0,0,.565,2.972,6.707,6.707,0,0,0,1.233,2.335,4.137,4.137,0,0,0,1.521,1.2,5.729,5.729,0,0,0,1.78.47,6.65,6.65,0,0,0,1.843-.076,10.289,10.289,0,0,0,1.734-.47,17.136,17.136,0,0,0,2.19-1,13.365,13.365,0,0,0,2.161-1.456,12.6,12.6,0,0,0,1.051-.971,7.677,7.677,0,0,0,.532,1.092,6.477,6.477,0,0,0,2.222,2.214,6.337,6.337,0,0,0,3.44.819,8.154,8.154,0,0,0,4.047-1.107,8.292,8.292,0,0,0,3.045-3.169,10.873,10.873,0,0,0,3.5-.581c-.01.122-.019.251-.028.369q-.121,1.607-.121,2.183-.03,1-.136,2.471t-.137,3.093a29.744,29.744,0,0,0,.12,3.276,12.146,12.146,0,0,0,.64,3,6.4,6.4,0,0,0,1.384,2.29,3.794,3.794,0,0,0,2.36,1.122,3.734,3.734,0,0,0,2.678-.546,5.631,5.631,0,0,0,1.826-2.077,9.975,9.975,0,0,0,.989-3.048,14.749,14.749,0,0,0,.167-3.472,13.166,13.166,0,0,0-.64-3.29,7.037,7.037,0,0,0-1.429-2.548,6.131,6.131,0,0,0,1.309-.576q.76-.424,1.567-.955c.132-.087.261-.179.395-.268-.051.716-.076,1.227-.076,1.527q-.03,1-.137,2.471t-.136,3.093a29.568,29.568,0,0,0,.122,3.276,12.1,12.1,0,0,0,.639,3,6.426,6.426,0,0,0,1.385,2.29,3.792,3.792,0,0,0,2.358,1.122,3.732,3.732,0,0,0,2.678-.546,5.633,5.633,0,0,0,1.826-2.077,9.994,9.994,0,0,0,.989-3.048,14.762,14.762,0,0,0,.168-3.472,13.276,13.276,0,0,0-.64-3.29,7.028,7.028,0,0,0-1.431-2.548,6.107,6.107,0,0,0,1.31-.576q.759-.424,1.566-.955.42-.276.834-.569a7.683,7.683,0,0,0,.688,2.585,5.018,5.018,0,0,0,1.781,2.063,5.264,5.264,0,0,0,2.647.8,8.683,8.683,0,0,0,3.318-.561,9.2,9.2,0,0,0,2.329-1.213,8.749,8.749,0,0,0,1.779-1.774c.031-.041.059-.084.089-.125a6.433,6.433,0,0,0,.322.807,5.016,5.016,0,0,0,1.78,2.063,5.279,5.279,0,0,0,2.648.8,8.675,8.675,0,0,0,3.317-.561,9.144,9.144,0,0,0,2.329-1.213,8.694,8.694,0,0,0,1.781-1.774,14.162,14.162,0,0,0,1.446-2.411q.653-1.365,1.323-3.124A.892.892,0,0,0,3060.907,260.878Z" transform="translate(-2777.348 -226.492)" fill="#fff" fill-rule="evenodd"/></svg>