<svg xmlns="http://www.w3.org/2000/svg" width="63.752" height="62.16" viewBox="0 0 63.752 62.16"><path d="M21.324,58.051c0,.257-.3.463-.668.463-.424.039-.72-.167-.72-.463,0-.257.3-.463.668-.463C20.989,57.55,21.324,57.755,21.324,58.051Zm-4-.578c-.09.257.167.553.553.63a.6.6,0,0,0,.8-.257c.077-.257-.167-.553-.553-.668a.66.66,0,0,0-.8.3Zm5.681-.219c-.373.09-.63.334-.591.63.039.257.373.424.758.334s.63-.334.591-.591S23.38,57.215,23.007,57.254ZM31.465,8C13.637,8,0,21.535,0,39.362A32.225,32.225,0,0,0,21.786,70.107c1.645.3,2.224-.72,2.224-1.555,0-.8-.039-5.193-.039-7.892,0,0-9,1.928-10.887-3.83,0,0-1.465-3.74-3.573-4.7,0,0-2.943-2.018.206-1.979a6.785,6.785,0,0,1,4.961,3.316c2.815,4.961,7.532,3.535,9.37,2.686a7.144,7.144,0,0,1,2.057-4.332c-7.185-.8-14.434-1.838-14.434-14.2A9.741,9.741,0,0,1,14.7,30.044a12.144,12.144,0,0,1,.334-8.727c2.686-.835,8.869,3.47,8.869,3.47a30.365,30.365,0,0,1,16.144,0s6.182-4.319,8.869-3.47a12.138,12.138,0,0,1,.334,8.727c2.057,2.275,3.316,4.049,3.316,7.571,0,12.4-7.571,13.393-14.756,14.2C39,52.833,40,54.761,40,57.781c0,4.332-.039,9.691-.039,10.745,0,.835.591,1.851,2.224,1.555,12.853-4.267,21.568-16.465,21.568-30.72C63.753,21.535,49.293,8,31.465,8ZM12.493,52.331c-.167.129-.129.424.09.668.206.206.5.3.668.129.167-.129.129-.424-.09-.668C12.956,52.254,12.661,52.164,12.493,52.331ZM11.105,51.29c-.09.167.039.373.3.5a.382.382,0,0,0,.553-.09c.09-.167-.039-.373-.3-.5C11.4,51.123,11.2,51.162,11.105,51.29Zm4.164,4.576c-.206.167-.129.553.167.8.3.3.668.334.835.129.167-.167.09-.553-.167-.8C15.822,55.7,15.437,55.66,15.27,55.866ZM13.8,53.976c-.206.129-.206.463,0,.758s.553.424.72.3a.586.586,0,0,0,0-.8c-.18-.3-.514-.424-.72-.257Z" transform="translate(0 -8)" fill="#fff"/></svg>