<svg xmlns="http://www.w3.org/2000/svg" width="67.305" height="54.664" viewBox="0 0 67.305 54.664"><path d="M60.386,61.705c.043.6.043,1.2.043,1.794,0,18.235-13.879,39.247-39.247,39.247A38.981,38.981,0,0,1,0,96.553a28.543,28.543,0,0,0,3.331.171,27.625,27.625,0,0,0,17.125-5.893,13.818,13.818,0,0,1-12.9-9.566,17.4,17.4,0,0,0,2.605.213,14.59,14.59,0,0,0,3.63-.47A13.8,13.8,0,0,1,2.733,67.471V67.3a13.891,13.891,0,0,0,6.235,1.751A13.815,13.815,0,0,1,4.7,50.6,39.209,39.209,0,0,0,33.14,65.036a15.573,15.573,0,0,1-.342-3.16,13.807,13.807,0,0,1,23.873-9.438,27.158,27.158,0,0,0,8.755-3.331,13.757,13.757,0,0,1-6.064,7.6A27.654,27.654,0,0,0,67.3,54.573,29.652,29.652,0,0,1,60.386,61.705Z" transform="translate(0 -48.082)" fill="#00a2f3"/></svg>